<svg width="305" height="146" viewBox="0 0 305 146" fill="none" xmlns="http://www.w3.org/2000/svg">
<g opacity="0.17">
<circle cx="2.5" cy="3.13477" r="2.5" fill="#2E3A87"/>
<circle cx="22.5" cy="3.13477" r="2.5" fill="#2E3A87"/>
<circle cx="42.5" cy="3.13477" r="2.5" fill="#2E3A87"/>
<circle cx="62.5" cy="3.13477" r="2.5" fill="#2E3A87"/>
<circle cx="82.5" cy="3.13477" r="2.5" fill="#2E3A87"/>
<circle cx="102.5" cy="3.13477" r="2.5" fill="#2E3A87"/>
<circle cx="122.5" cy="3.13477" r="2.5" fill="#2E3A87"/>
<circle cx="142.5" cy="3.13477" r="2.5" fill="#2E3A87"/>
<circle cx="162.5" cy="3.13477" r="2.5" fill="#2E3A87"/>
<circle cx="182.5" cy="3.13477" r="2.5" fill="#2E3A87"/>
<circle cx="202.5" cy="3.13477" r="2.5" fill="#2E3A87"/>
<circle cx="222.5" cy="3.13477" r="2.5" fill="#2E3A87"/>
<circle cx="242.5" cy="3.13477" r="2.5" fill="#2E3A87"/>
<circle cx="262.5" cy="3.13477" r="2.5" fill="#2E3A87"/>
<circle cx="282.5" cy="3.13477" r="2.5" fill="#2E3A87"/>
<circle cx="302.5" cy="3.13477" r="2.5" fill="#2E3A87"/>
<circle cx="2.5" cy="23.1348" r="2.5" fill="#2E3A87"/>
<circle cx="22.5" cy="23.1348" r="2.5" fill="#2E3A87"/>
<circle cx="42.5" cy="23.1348" r="2.5" fill="#2E3A87"/>
<circle cx="62.5" cy="23.1348" r="2.5" fill="#2E3A87"/>
<circle cx="82.5" cy="23.1348" r="2.5" fill="#2E3A87"/>
<circle cx="102.5" cy="23.1348" r="2.5" fill="#2E3A87"/>
<circle cx="122.5" cy="23.1348" r="2.5" fill="#2E3A87"/>
<circle cx="142.5" cy="23.1348" r="2.5" fill="#2E3A87"/>
<circle cx="162.5" cy="23.1348" r="2.5" fill="#2E3A87"/>
<circle cx="182.5" cy="23.1348" r="2.5" fill="#2E3A87"/>
<circle cx="202.5" cy="23.1348" r="2.5" fill="#2E3A87"/>
<circle cx="222.5" cy="23.1348" r="2.5" fill="#2E3A87"/>
<circle cx="242.5" cy="23.1348" r="2.5" fill="#2E3A87"/>
<circle cx="262.5" cy="23.1348" r="2.5" fill="#2E3A87"/>
<circle cx="282.5" cy="23.1348" r="2.5" fill="#2E3A87"/>
<circle cx="302.5" cy="23.1348" r="2.5" fill="#2E3A87"/>
<circle cx="2.5" cy="43.1348" r="2.5" fill="#2E3A87"/>
<circle cx="22.5" cy="43.1348" r="2.5" fill="#2E3A87"/>
<circle cx="42.5" cy="43.1348" r="2.5" fill="#2E3A87"/>
<circle cx="62.5" cy="43.1348" r="2.5" fill="#2E3A87"/>
<circle cx="82.5" cy="43.1348" r="2.5" fill="#2E3A87"/>
<circle cx="102.5" cy="43.1348" r="2.5" fill="#2E3A87"/>
<circle cx="122.5" cy="43.1348" r="2.5" fill="#2E3A87"/>
<circle cx="142.5" cy="43.1348" r="2.5" fill="#2E3A87"/>
<circle cx="162.5" cy="43.1348" r="2.5" fill="#2E3A87"/>
<circle cx="182.5" cy="43.1348" r="2.5" fill="#2E3A87"/>
<circle cx="202.5" cy="43.1348" r="2.5" fill="#2E3A87"/>
<circle cx="222.5" cy="43.1348" r="2.5" fill="#2E3A87"/>
<circle cx="242.5" cy="43.1348" r="2.5" fill="#2E3A87"/>
<circle cx="262.5" cy="43.1348" r="2.5" fill="#2E3A87"/>
<circle cx="282.5" cy="43.1348" r="2.5" fill="#2E3A87"/>
<circle cx="302.5" cy="43.1348" r="2.5" fill="#2E3A87"/>
<circle cx="2.5" cy="63.1348" r="2.5" fill="#2E3A87"/>
<circle cx="22.5" cy="63.1348" r="2.5" fill="#2E3A87"/>
<circle cx="42.5" cy="63.1348" r="2.5" fill="#2E3A87"/>
<circle cx="62.5" cy="63.1348" r="2.5" fill="#2E3A87"/>
<circle cx="82.5" cy="63.1348" r="2.5" fill="#2E3A87"/>
<circle cx="102.5" cy="63.1348" r="2.5" fill="#2E3A87"/>
<circle cx="122.5" cy="63.1348" r="2.5" fill="#2E3A87"/>
<circle cx="142.5" cy="63.1348" r="2.5" fill="#2E3A87"/>
<circle cx="162.5" cy="63.1348" r="2.5" fill="#2E3A87"/>
<circle cx="182.5" cy="63.1348" r="2.5" fill="#2E3A87"/>
<circle cx="202.5" cy="63.1348" r="2.5" fill="#2E3A87"/>
<circle cx="222.5" cy="63.1348" r="2.5" fill="#2E3A87"/>
<circle cx="242.5" cy="63.1348" r="2.5" fill="#2E3A87"/>
<circle cx="262.5" cy="63.1348" r="2.5" fill="#2E3A87"/>
<circle cx="282.5" cy="63.1348" r="2.5" fill="#2E3A87"/>
<circle cx="302.5" cy="63.1348" r="2.5" fill="#2E3A87"/>
<circle cx="2.5" cy="83.1348" r="2.5" fill="#2E3A87"/>
<circle cx="22.5" cy="83.1348" r="2.5" fill="#2E3A87"/>
<circle cx="42.5" cy="83.1348" r="2.5" fill="#2E3A87"/>
<circle cx="62.5" cy="83.1348" r="2.5" fill="#2E3A87"/>
<circle cx="82.5" cy="83.1348" r="2.5" fill="#2E3A87"/>
<circle cx="102.5" cy="83.1348" r="2.5" fill="#2E3A87"/>
<circle cx="122.5" cy="83.1348" r="2.5" fill="#2E3A87"/>
<circle cx="142.5" cy="83.1348" r="2.5" fill="#2E3A87"/>
<circle cx="162.5" cy="83.1348" r="2.5" fill="#2E3A87"/>
<circle cx="182.5" cy="83.1348" r="2.5" fill="#2E3A87"/>
<circle cx="202.5" cy="83.1348" r="2.5" fill="#00FADE"/>
<circle cx="222.5" cy="83.1348" r="2.5" fill="#2E3A87"/>
<circle cx="242.5" cy="83.1348" r="2.5" fill="#2E3A87"/>
<circle cx="262.5" cy="83.1348" r="2.5" fill="#2E3A87"/>
<circle cx="282.5" cy="83.1348" r="2.5" fill="#2E3A87"/>
<circle cx="302.5" cy="83.1348" r="2.5" fill="#2E3A87"/>
<circle cx="2.5" cy="103.135" r="2.5" fill="#2E3A87"/>
<circle cx="22.5" cy="103.135" r="2.5" fill="#2E3A87"/>
<circle cx="42.5" cy="103.135" r="2.5" fill="#2E3A87"/>
<circle cx="62.5" cy="103.135" r="2.5" fill="#2E3A87"/>
<circle cx="82.5" cy="103.135" r="2.5" fill="#2E3A87"/>
<circle cx="102.5" cy="103.135" r="2.5" fill="#2E3A87"/>
<circle cx="122.5" cy="103.135" r="2.5" fill="#2E3A87"/>
<circle cx="142.5" cy="103.135" r="2.5" fill="#2E3A87"/>
<circle cx="162.5" cy="103.135" r="2.5" fill="#2E3A87"/>
<circle cx="182.5" cy="103.135" r="2.5" fill="#2E3A87"/>
<circle cx="202.5" cy="103.135" r="2.5" fill="#2E3A87"/>
<circle cx="222.5" cy="103.135" r="2.5" fill="#2E3A87"/>
<circle cx="242.5" cy="103.135" r="2.5" fill="#2E3A87"/>
<circle cx="262.5" cy="103.135" r="2.5" fill="#2E3A87"/>
<circle cx="282.5" cy="103.135" r="2.5" fill="#2E3A87"/>
<circle cx="302.5" cy="103.135" r="2.5" fill="#2E3A87"/>
<circle cx="2.5" cy="123.135" r="2.5" fill="#2E3A87"/>
<circle cx="22.5" cy="123.135" r="2.5" fill="#2E3A87"/>
<circle cx="42.5" cy="123.135" r="2.5" fill="#2E3A87"/>
<circle cx="62.5" cy="123.135" r="2.5" fill="#2E3A87"/>
<circle cx="82.5" cy="123.135" r="2.5" fill="#2E3A87"/>
<circle cx="102.5" cy="123.135" r="2.5" fill="#2E3A87"/>
<circle cx="122.5" cy="123.135" r="2.5" fill="#2E3A87"/>
<circle cx="142.5" cy="123.135" r="2.5" fill="#2E3A87"/>
<circle cx="162.5" cy="123.135" r="2.5" fill="#2E3A87"/>
<circle cx="182.5" cy="123.135" r="2.5" fill="#2E3A87"/>
<circle cx="202.5" cy="123.135" r="2.5" fill="#2E3A87"/>
<circle cx="222.5" cy="123.135" r="2.5" fill="#2E3A87"/>
<circle cx="242.5" cy="123.135" r="2.5" fill="#2E3A87"/>
<circle cx="262.5" cy="123.135" r="2.5" fill="#2E3A87"/>
<circle cx="282.5" cy="123.135" r="2.5" fill="#2E3A87"/>
<circle cx="302.5" cy="123.135" r="2.5" fill="#2E3A87"/>
<circle cx="2.5" cy="143.135" r="2.5" fill="#2E3A87"/>
<circle cx="22.5" cy="143.135" r="2.5" fill="#2E3A87"/>
<circle cx="42.5" cy="143.135" r="2.5" fill="#2E3A87"/>
<circle cx="62.5" cy="143.135" r="2.5" fill="#2E3A87"/>
<circle cx="82.5" cy="143.135" r="2.5" fill="#2E3A87"/>
<circle cx="102.5" cy="143.135" r="2.5" fill="#2E3A87"/>
<circle cx="122.5" cy="143.135" r="2.5" fill="#2E3A87"/>
<circle cx="142.5" cy="143.135" r="2.5" fill="#2E3A87"/>
<circle cx="162.5" cy="143.135" r="2.5" fill="#2E3A87"/>
<circle cx="182.5" cy="143.135" r="2.5" fill="#2E3A87"/>
<circle cx="202.5" cy="143.135" r="2.5" fill="#2E3A87"/>
<circle cx="222.5" cy="143.135" r="2.5" fill="#2E3A87"/>
<circle cx="242.5" cy="143.135" r="2.5" fill="#2E3A87"/>
<circle cx="262.5" cy="143.135" r="2.5" fill="#2E3A87"/>
<circle cx="282.5" cy="143.135" r="2.5" fill="#2E3A87"/>
<circle cx="302.5" cy="143.135" r="2.5" fill="#2E3A87"/>
</g>
</svg>
