<svg width="756" height="504" viewBox="0 0 756 504" fill="none" xmlns="http://www.w3.org/2000/svg">
<rect x="0.5" y="0.5" width="755" height="503" stroke="white" stroke-dasharray="2 2"/>
<rect x="753" y="484" width="3" height="20" fill="white"/>
<rect x="736" y="504" width="3" height="20" transform="rotate(-90 736 504)" fill="white"/>
<rect width="3" height="20" transform="matrix(-1 0 0 1 3 484)" fill="white"/>
<rect width="3" height="20" transform="matrix(4.37114e-08 -1 -1 -4.37114e-08 20 504)" fill="white"/>
<rect x="736" y="3" width="3" height="20" transform="rotate(-90 736 3)" fill="white"/>
<rect x="756" y="20" width="3" height="20" transform="rotate(180 756 20)" fill="white"/>
<rect width="3" height="20" transform="matrix(4.37114e-08 -1 -1 -4.37114e-08 20 3)" fill="white"/>
<rect width="3" height="20" transform="matrix(1 8.74228e-08 8.74228e-08 -1 0 20)" fill="white"/>
<rect opacity="0.5" x="263" y="33" width="229" height="438" rx="16" stroke="white" stroke-width="2"/>
<rect opacity="0.5" x="285" y="54" width="29" height="91" rx="14.5" fill="white" stroke="white" stroke-width="2"/>
</svg>
