<svg width="233" height="305" viewBox="0 0 233 305" fill="none" xmlns="http://www.w3.org/2000/svg">
<g opacity="0.17">
<circle cx="70.5" cy="2.5" r="2.5" transform="rotate(90 70.5 2.5)" fill="#2E3A87"/>
<circle cx="70.5" cy="22.5" r="2.5" transform="rotate(90 70.5 22.5)" fill="#2E3A87"/>
<circle cx="70.5" cy="42.5" r="2.5" transform="rotate(90 70.5 42.5)" fill="#2E3A87"/>
<circle cx="70.5" cy="62.5" r="2.5" transform="rotate(90 70.5 62.5)" fill="#2E3A87"/>
<circle cx="70.5" cy="82.5" r="2.5" transform="rotate(90 70.5 82.5)" fill="#2E3A87"/>
<circle cx="70.5" cy="102.5" r="2.5" transform="rotate(90 70.5 102.5)" fill="#2E3A87"/>
<circle cx="70.5" cy="122.5" r="2.5" transform="rotate(90 70.5 122.5)" fill="#2E3A87"/>
<circle cx="70.5" cy="142.5" r="2.5" transform="rotate(90 70.5 142.5)" fill="#2E3A87"/>
<circle cx="70.5" cy="162.5" r="2.5" transform="rotate(90 70.5 162.5)" fill="#2E3A87"/>
<circle cx="70.5" cy="182.5" r="2.5" transform="rotate(90 70.5 182.5)" fill="#2E3A87"/>
<circle cx="70.5" cy="202.5" r="2.5" transform="rotate(90 70.5 202.5)" fill="#2E3A87"/>
<circle cx="70.5" cy="222.5" r="2.5" transform="rotate(90 70.5 222.5)" fill="#2E3A87"/>
<circle cx="70.5" cy="242.5" r="2.5" transform="rotate(90 70.5 242.5)" fill="#2E3A87"/>
<circle cx="70.5" cy="262.5" r="2.5" transform="rotate(90 70.5 262.5)" fill="#2E3A87"/>
<circle cx="70.5" cy="282.5" r="2.5" transform="rotate(90 70.5 282.5)" fill="#2E3A87"/>
<circle cx="70.5" cy="302.5" r="2.5" transform="rotate(90 70.5 302.5)" fill="#2E3A87"/>
<circle cx="50.5" cy="2.5" r="2.5" transform="rotate(90 50.5 2.5)" fill="#2E3A87"/>
<circle cx="50.5" cy="22.5" r="2.5" transform="rotate(90 50.5 22.5)" fill="#2E3A87"/>
<circle cx="50.5" cy="42.5" r="2.5" transform="rotate(90 50.5 42.5)" fill="#2E3A87"/>
<circle cx="50.5" cy="62.5" r="2.5" transform="rotate(90 50.5 62.5)" fill="#2E3A87"/>
<circle cx="50.5" cy="82.5" r="2.5" transform="rotate(90 50.5 82.5)" fill="#2E3A87"/>
<circle cx="50.5" cy="102.5" r="2.5" transform="rotate(90 50.5 102.5)" fill="#2E3A87"/>
<circle cx="50.5" cy="122.5" r="2.5" transform="rotate(90 50.5 122.5)" fill="#2E3A87"/>
<circle cx="50.5" cy="142.5" r="2.5" transform="rotate(90 50.5 142.5)" fill="#2E3A87"/>
<circle cx="50.5" cy="162.5" r="2.5" transform="rotate(90 50.5 162.5)" fill="#2E3A87"/>
<circle cx="50.5" cy="182.5" r="2.5" transform="rotate(90 50.5 182.5)" fill="#2E3A87"/>
<circle cx="50.5" cy="202.5" r="2.5" transform="rotate(90 50.5 202.5)" fill="#2E3A87"/>
<circle cx="50.5" cy="222.5" r="2.5" transform="rotate(90 50.5 222.5)" fill="#2E3A87"/>
<circle cx="50.5" cy="242.5" r="2.5" transform="rotate(90 50.5 242.5)" fill="#2E3A87"/>
<circle cx="50.5" cy="262.5" r="2.5" transform="rotate(90 50.5 262.5)" fill="#2E3A87"/>
<circle cx="50.5" cy="282.5" r="2.5" transform="rotate(90 50.5 282.5)" fill="#2E3A87"/>
<circle cx="50.5" cy="302.5" r="2.5" transform="rotate(90 50.5 302.5)" fill="#2E3A87"/>
<circle cx="30.5" cy="2.5" r="2.5" transform="rotate(90 30.5 2.5)" fill="#2E3A87"/>
<circle cx="30.5" cy="22.5" r="2.5" transform="rotate(90 30.5 22.5)" fill="#2E3A87"/>
<circle cx="30.5" cy="42.5" r="2.5" transform="rotate(90 30.5 42.5)" fill="#2E3A87"/>
<circle cx="30.5" cy="62.5" r="2.5" transform="rotate(90 30.5 62.5)" fill="#2E3A87"/>
<circle cx="30.5" cy="82.5" r="2.5" transform="rotate(90 30.5 82.5)" fill="#2E3A87"/>
<circle cx="30.5" cy="102.5" r="2.5" transform="rotate(90 30.5 102.5)" fill="#2E3A87"/>
<circle cx="30.5" cy="122.5" r="2.5" transform="rotate(90 30.5 122.5)" fill="#2E3A87"/>
<circle cx="30.5" cy="142.5" r="2.5" transform="rotate(90 30.5 142.5)" fill="#2E3A87"/>
<circle cx="30.5" cy="162.5" r="2.5" transform="rotate(90 30.5 162.5)" fill="#2E3A87"/>
<circle cx="30.5" cy="182.5" r="2.5" transform="rotate(90 30.5 182.5)" fill="#2E3A87"/>
<circle cx="30.5" cy="202.5" r="2.5" transform="rotate(90 30.5 202.5)" fill="#2E3A87"/>
<circle cx="30.5" cy="222.5" r="2.5" transform="rotate(90 30.5 222.5)" fill="#2E3A87"/>
<circle cx="30.5" cy="242.5" r="2.5" transform="rotate(90 30.5 242.5)" fill="#2E3A87"/>
<circle cx="30.5" cy="262.5" r="2.5" transform="rotate(90 30.5 262.5)" fill="#2E3A87"/>
<circle cx="30.5" cy="282.5" r="2.5" transform="rotate(90 30.5 282.5)" fill="#2E3A87"/>
<circle cx="30.5" cy="302.5" r="2.5" transform="rotate(90 30.5 302.5)" fill="#2E3A87"/>
<circle cx="10.5" cy="2.5" r="2.5" transform="rotate(90 10.5 2.5)" fill="#2E3A87"/>
<circle cx="10.5" cy="22.5" r="2.5" transform="rotate(90 10.5 22.5)" fill="#2E3A87"/>
<circle cx="10.5" cy="42.5" r="2.5" transform="rotate(90 10.5 42.5)" fill="#2E3A87"/>
<circle cx="10.5" cy="62.5" r="2.5" transform="rotate(90 10.5 62.5)" fill="#2E3A87"/>
<circle cx="10.5" cy="82.5" r="2.5" transform="rotate(90 10.5 82.5)" fill="#2E3A87"/>
<circle cx="10.5" cy="102.5" r="2.5" transform="rotate(90 10.5 102.5)" fill="#2E3A87"/>
<circle cx="10.5" cy="122.5" r="2.5" transform="rotate(90 10.5 122.5)" fill="#2E3A87"/>
<circle cx="10.5" cy="142.5" r="2.5" transform="rotate(90 10.5 142.5)" fill="#2E3A87"/>
<circle cx="10.5" cy="162.5" r="2.5" transform="rotate(90 10.5 162.5)" fill="#2E3A87"/>
<circle cx="10.5" cy="182.5" r="2.5" transform="rotate(90 10.5 182.5)" fill="#2E3A87"/>
<circle cx="10.5" cy="202.5" r="2.5" transform="rotate(90 10.5 202.5)" fill="#2E3A87"/>
<circle cx="10.5" cy="222.5" r="2.5" transform="rotate(90 10.5 222.5)" fill="#2E3A87"/>
<circle cx="10.5" cy="242.5" r="2.5" transform="rotate(90 10.5 242.5)" fill="#2E3A87"/>
<circle cx="10.5" cy="262.5" r="2.5" transform="rotate(90 10.5 262.5)" fill="#2E3A87"/>
<circle cx="10.5" cy="282.5" r="2.5" transform="rotate(90 10.5 282.5)" fill="#2E3A87"/>
<circle cx="10.5" cy="302.5" r="2.5" transform="rotate(90 10.5 302.5)" fill="#2E3A87"/>
</g>
<g opacity="0.17">
<circle cx="230.5" cy="2.5" r="2.5" transform="rotate(90 230.5 2.5)" fill="#2E3A87"/>
<circle cx="230.5" cy="22.5" r="2.5" transform="rotate(90 230.5 22.5)" fill="#2E3A87"/>
<circle cx="230.5" cy="42.5" r="2.5" transform="rotate(90 230.5 42.5)" fill="#2E3A87"/>
<circle cx="230.5" cy="62.5" r="2.5" transform="rotate(90 230.5 62.5)" fill="#2E3A87"/>
<circle cx="230.5" cy="82.5" r="2.5" transform="rotate(90 230.5 82.5)" fill="#2E3A87"/>
<circle cx="230.5" cy="102.5" r="2.5" transform="rotate(90 230.5 102.5)" fill="#2E3A87"/>
<circle cx="230.5" cy="122.5" r="2.5" transform="rotate(90 230.5 122.5)" fill="#2E3A87"/>
<circle cx="230.5" cy="142.5" r="2.5" transform="rotate(90 230.5 142.5)" fill="#2E3A87"/>
<circle cx="230.5" cy="162.5" r="2.5" transform="rotate(90 230.5 162.5)" fill="#2E3A87"/>
<circle cx="230.5" cy="182.5" r="2.5" transform="rotate(90 230.5 182.5)" fill="#2E3A87"/>
<circle cx="230.5" cy="202.5" r="2.5" transform="rotate(90 230.5 202.5)" fill="#2E3A87"/>
<circle cx="230.5" cy="222.5" r="2.5" transform="rotate(90 230.5 222.5)" fill="#2E3A87"/>
<circle cx="230.5" cy="242.5" r="2.5" transform="rotate(90 230.5 242.5)" fill="#2E3A87"/>
<circle cx="230.5" cy="262.5" r="2.5" transform="rotate(90 230.5 262.5)" fill="#2E3A87"/>
<circle cx="230.5" cy="282.5" r="2.5" transform="rotate(90 230.5 282.5)" fill="#2E3A87"/>
<circle cx="230.5" cy="302.5" r="2.5" transform="rotate(90 230.5 302.5)" fill="#2E3A87"/>
<circle cx="210.5" cy="2.5" r="2.5" transform="rotate(90 210.5 2.5)" fill="#2E3A87"/>
<circle cx="210.5" cy="22.5" r="2.5" transform="rotate(90 210.5 22.5)" fill="#2E3A87"/>
<circle cx="210.5" cy="42.5" r="2.5" transform="rotate(90 210.5 42.5)" fill="#2E3A87"/>
<circle cx="210.5" cy="62.5" r="2.5" transform="rotate(90 210.5 62.5)" fill="#2E3A87"/>
<circle cx="210.5" cy="82.5" r="2.5" transform="rotate(90 210.5 82.5)" fill="#2E3A87"/>
<circle cx="210.5" cy="102.5" r="2.5" transform="rotate(90 210.5 102.5)" fill="#2E3A87"/>
<circle cx="210.5" cy="122.5" r="2.5" transform="rotate(90 210.5 122.5)" fill="#2E3A87"/>
<circle cx="210.5" cy="142.5" r="2.5" transform="rotate(90 210.5 142.5)" fill="#2E3A87"/>
<circle cx="210.5" cy="162.5" r="2.5" transform="rotate(90 210.5 162.5)" fill="#2E3A87"/>
<circle cx="210.5" cy="182.5" r="2.5" transform="rotate(90 210.5 182.5)" fill="#2E3A87"/>
<circle cx="210.5" cy="202.5" r="2.5" transform="rotate(90 210.5 202.5)" fill="#2E3A87"/>
<circle cx="210.5" cy="222.5" r="2.5" transform="rotate(90 210.5 222.5)" fill="#2E3A87"/>
<circle cx="210.5" cy="242.5" r="2.5" transform="rotate(90 210.5 242.5)" fill="#2E3A87"/>
<circle cx="210.5" cy="262.5" r="2.5" transform="rotate(90 210.5 262.5)" fill="#2E3A87"/>
<circle cx="210.5" cy="282.5" r="2.5" transform="rotate(90 210.5 282.5)" fill="#2E3A87"/>
<circle cx="210.5" cy="302.5" r="2.5" transform="rotate(90 210.5 302.5)" fill="#2E3A87"/>
<circle cx="190.5" cy="2.5" r="2.5" transform="rotate(90 190.5 2.5)" fill="#2E3A87"/>
<circle cx="190.5" cy="22.5" r="2.5" transform="rotate(90 190.5 22.5)" fill="#2E3A87"/>
<circle cx="190.5" cy="42.5" r="2.5" transform="rotate(90 190.5 42.5)" fill="#2E3A87"/>
<circle cx="190.5" cy="62.5" r="2.5" transform="rotate(90 190.5 62.5)" fill="#2E3A87"/>
<circle cx="190.5" cy="82.5" r="2.5" transform="rotate(90 190.5 82.5)" fill="#2E3A87"/>
<circle cx="190.5" cy="102.5" r="2.5" transform="rotate(90 190.5 102.5)" fill="#2E3A87"/>
<circle cx="190.5" cy="122.5" r="2.5" transform="rotate(90 190.5 122.5)" fill="#2E3A87"/>
<circle cx="190.5" cy="142.5" r="2.5" transform="rotate(90 190.5 142.5)" fill="#2E3A87"/>
<circle cx="190.5" cy="162.5" r="2.5" transform="rotate(90 190.5 162.5)" fill="#2E3A87"/>
<circle cx="190.5" cy="182.5" r="2.5" transform="rotate(90 190.5 182.5)" fill="#2E3A87"/>
<circle cx="190.5" cy="202.5" r="2.5" transform="rotate(90 190.5 202.5)" fill="#2E3A87"/>
<circle cx="190.5" cy="222.5" r="2.5" transform="rotate(90 190.5 222.5)" fill="#2E3A87"/>
<circle cx="190.5" cy="242.5" r="2.5" transform="rotate(90 190.5 242.5)" fill="#2E3A87"/>
<circle cx="190.5" cy="262.5" r="2.5" transform="rotate(90 190.5 262.5)" fill="#2E3A87"/>
<circle cx="190.5" cy="282.5" r="2.5" transform="rotate(90 190.5 282.5)" fill="#2E3A87"/>
<circle cx="190.5" cy="302.5" r="2.5" transform="rotate(90 190.5 302.5)" fill="#2E3A87"/>
<circle cx="170.5" cy="2.5" r="2.5" transform="rotate(90 170.5 2.5)" fill="#2E3A87"/>
<circle cx="170.5" cy="22.5" r="2.5" transform="rotate(90 170.5 22.5)" fill="#2E3A87"/>
<circle cx="170.5" cy="42.5" r="2.5" transform="rotate(90 170.5 42.5)" fill="#2E3A87"/>
<circle cx="170.5" cy="62.5" r="2.5" transform="rotate(90 170.5 62.5)" fill="#2E3A87"/>
<circle cx="170.5" cy="82.5" r="2.5" transform="rotate(90 170.5 82.5)" fill="#2E3A87"/>
<circle cx="170.5" cy="102.5" r="2.5" transform="rotate(90 170.5 102.5)" fill="#2E3A87"/>
<circle cx="170.5" cy="122.5" r="2.5" transform="rotate(90 170.5 122.5)" fill="#2E3A87"/>
<circle cx="170.5" cy="142.5" r="2.5" transform="rotate(90 170.5 142.5)" fill="#2E3A87"/>
<circle cx="170.5" cy="162.5" r="2.5" transform="rotate(90 170.5 162.5)" fill="#2E3A87"/>
<circle cx="170.5" cy="182.5" r="2.5" transform="rotate(90 170.5 182.5)" fill="#2E3A87"/>
<circle cx="170.5" cy="202.5" r="2.5" transform="rotate(90 170.5 202.5)" fill="#2E3A87"/>
<circle cx="170.5" cy="222.5" r="2.5" transform="rotate(90 170.5 222.5)" fill="#2E3A87"/>
<circle cx="170.5" cy="242.5" r="2.5" transform="rotate(90 170.5 242.5)" fill="#2E3A87"/>
<circle cx="170.5" cy="262.5" r="2.5" transform="rotate(90 170.5 262.5)" fill="#2E3A87"/>
<circle cx="170.5" cy="282.5" r="2.5" transform="rotate(90 170.5 282.5)" fill="#2E3A87"/>
<circle cx="170.5" cy="302.5" r="2.5" transform="rotate(90 170.5 302.5)" fill="#2E3A87"/>
<circle cx="150.5" cy="2.5" r="2.5" transform="rotate(90 150.5 2.5)" fill="#2E3A87"/>
<circle cx="150.5" cy="22.5" r="2.5" transform="rotate(90 150.5 22.5)" fill="#2E3A87"/>
<circle cx="150.5" cy="42.5" r="2.5" transform="rotate(90 150.5 42.5)" fill="#2E3A87"/>
<circle cx="150.5" cy="62.5" r="2.5" transform="rotate(90 150.5 62.5)" fill="#2E3A87"/>
<circle cx="150.5" cy="82.5" r="2.5" transform="rotate(90 150.5 82.5)" fill="#2E3A87"/>
<circle cx="150.5" cy="102.5" r="2.5" transform="rotate(90 150.5 102.5)" fill="#2E3A87"/>
<circle cx="150.5" cy="122.5" r="2.5" transform="rotate(90 150.5 122.5)" fill="#2E3A87"/>
<circle cx="150.5" cy="142.5" r="2.5" transform="rotate(90 150.5 142.5)" fill="#2E3A87"/>
<circle cx="150.5" cy="162.5" r="2.5" transform="rotate(90 150.5 162.5)" fill="#2E3A87"/>
<circle cx="150.5" cy="182.5" r="2.5" transform="rotate(90 150.5 182.5)" fill="#2E3A87"/>
<circle cx="150.5" cy="202.5" r="2.5" transform="rotate(90 150.5 202.5)" fill="#2E3A87"/>
<circle cx="150.5" cy="222.5" r="2.5" transform="rotate(90 150.5 222.5)" fill="#2E3A87"/>
<circle cx="150.5" cy="242.5" r="2.5" transform="rotate(90 150.5 242.5)" fill="#2E3A87"/>
<circle cx="150.5" cy="262.5" r="2.5" transform="rotate(90 150.5 262.5)" fill="#2E3A87"/>
<circle cx="150.5" cy="282.5" r="2.5" transform="rotate(90 150.5 282.5)" fill="#2E3A87"/>
<circle cx="150.5" cy="302.5" r="2.5" transform="rotate(90 150.5 302.5)" fill="#2E3A87"/>
<circle cx="130.5" cy="2.5" r="2.5" transform="rotate(90 130.5 2.5)" fill="#2E3A87"/>
<circle cx="130.5" cy="22.5" r="2.5" transform="rotate(90 130.5 22.5)" fill="#2E3A87"/>
<circle cx="130.5" cy="42.5" r="2.5" transform="rotate(90 130.5 42.5)" fill="#2E3A87"/>
<circle cx="130.5" cy="62.5" r="2.5" transform="rotate(90 130.5 62.5)" fill="#2E3A87"/>
<circle cx="130.5" cy="82.5" r="2.5" transform="rotate(90 130.5 82.5)" fill="#2E3A87"/>
<circle cx="130.5" cy="102.5" r="2.5" transform="rotate(90 130.5 102.5)" fill="#2E3A87"/>
<circle cx="130.5" cy="122.5" r="2.5" transform="rotate(90 130.5 122.5)" fill="#2E3A87"/>
<circle cx="130.5" cy="142.5" r="2.5" transform="rotate(90 130.5 142.5)" fill="#2E3A87"/>
<circle cx="130.5" cy="162.5" r="2.5" transform="rotate(90 130.5 162.5)" fill="#2E3A87"/>
<circle cx="130.5" cy="182.5" r="2.5" transform="rotate(90 130.5 182.5)" fill="#2E3A87"/>
<circle cx="130.5" cy="202.5" r="2.5" transform="rotate(90 130.5 202.5)" fill="#2E3A87"/>
<circle cx="130.5" cy="222.5" r="2.5" transform="rotate(90 130.5 222.5)" fill="#2E3A87"/>
<circle cx="130.5" cy="242.5" r="2.5" transform="rotate(90 130.5 242.5)" fill="#2E3A87"/>
<circle cx="130.5" cy="262.5" r="2.5" transform="rotate(90 130.5 262.5)" fill="#2E3A87"/>
<circle cx="130.5" cy="282.5" r="2.5" transform="rotate(90 130.5 282.5)" fill="#2E3A87"/>
<circle cx="130.5" cy="302.5" r="2.5" transform="rotate(90 130.5 302.5)" fill="#2E3A87"/>
<circle cx="110.5" cy="2.5" r="2.5" transform="rotate(90 110.5 2.5)" fill="#2E3A87"/>
<circle cx="110.5" cy="22.5" r="2.5" transform="rotate(90 110.5 22.5)" fill="#2E3A87"/>
<circle cx="110.5" cy="42.5" r="2.5" transform="rotate(90 110.5 42.5)" fill="#2E3A87"/>
<circle cx="110.5" cy="62.5" r="2.5" transform="rotate(90 110.5 62.5)" fill="#2E3A87"/>
<circle cx="110.5" cy="82.5" r="2.5" transform="rotate(90 110.5 82.5)" fill="#2E3A87"/>
<circle cx="110.5" cy="102.5" r="2.5" transform="rotate(90 110.5 102.5)" fill="#2E3A87"/>
<circle cx="110.5" cy="122.5" r="2.5" transform="rotate(90 110.5 122.5)" fill="#2E3A87"/>
<circle cx="110.5" cy="142.5" r="2.5" transform="rotate(90 110.5 142.5)" fill="#2E3A87"/>
<circle cx="110.5" cy="162.5" r="2.5" transform="rotate(90 110.5 162.5)" fill="#2E3A87"/>
<circle cx="110.5" cy="182.5" r="2.5" transform="rotate(90 110.5 182.5)" fill="#2E3A87"/>
<circle cx="110.5" cy="202.5" r="2.5" transform="rotate(90 110.5 202.5)" fill="#2E3A87"/>
<circle cx="110.5" cy="222.5" r="2.5" transform="rotate(90 110.5 222.5)" fill="#2E3A87"/>
<circle cx="110.5" cy="242.5" r="2.5" transform="rotate(90 110.5 242.5)" fill="#2E3A87"/>
<circle cx="110.5" cy="262.5" r="2.5" transform="rotate(90 110.5 262.5)" fill="#2E3A87"/>
<circle cx="110.5" cy="282.5" r="2.5" transform="rotate(90 110.5 282.5)" fill="#2E3A87"/>
<circle cx="110.5" cy="302.5" r="2.5" transform="rotate(90 110.5 302.5)" fill="#2E3A87"/>
<circle cx="90.5" cy="2.5" r="2.5" transform="rotate(90 90.5 2.5)" fill="#2E3A87"/>
<circle cx="90.5" cy="22.5" r="2.5" transform="rotate(90 90.5 22.5)" fill="#2E3A87"/>
<circle cx="90.5" cy="42.5" r="2.5" transform="rotate(90 90.5 42.5)" fill="#2E3A87"/>
<circle cx="90.5" cy="62.5" r="2.5" transform="rotate(90 90.5 62.5)" fill="#2E3A87"/>
<circle cx="90.5" cy="82.5" r="2.5" transform="rotate(90 90.5 82.5)" fill="#2E3A87"/>
<circle cx="90.5" cy="102.5" r="2.5" transform="rotate(90 90.5 102.5)" fill="#2E3A87"/>
<circle cx="90.5" cy="122.5" r="2.5" transform="rotate(90 90.5 122.5)" fill="#2E3A87"/>
<circle cx="90.5" cy="142.5" r="2.5" transform="rotate(90 90.5 142.5)" fill="#2E3A87"/>
<circle cx="90.5" cy="162.5" r="2.5" transform="rotate(90 90.5 162.5)" fill="#2E3A87"/>
<circle cx="90.5" cy="182.5" r="2.5" transform="rotate(90 90.5 182.5)" fill="#2E3A87"/>
<circle cx="90.5" cy="202.5" r="2.5" transform="rotate(90 90.5 202.5)" fill="#2E3A87"/>
<circle cx="90.5" cy="222.5" r="2.5" transform="rotate(90 90.5 222.5)" fill="#2E3A87"/>
<circle cx="90.5" cy="242.5" r="2.5" transform="rotate(90 90.5 242.5)" fill="#2E3A87"/>
<circle cx="90.5" cy="262.5" r="2.5" transform="rotate(90 90.5 262.5)" fill="#2E3A87"/>
<circle cx="90.5" cy="282.5" r="2.5" transform="rotate(90 90.5 282.5)" fill="#2E3A87"/>
<circle cx="90.5" cy="302.5" r="2.5" transform="rotate(90 90.5 302.5)" fill="#2E3A87"/>
</g>
</svg>
