<svg width="263" height="305" viewBox="0 0 263 305" fill="none" xmlns="http://www.w3.org/2000/svg">
<g opacity="0.17">
<circle cx="100.5" cy="2.5" r="2.5" transform="rotate(90 100.5 2.5)" fill="#2E3A87"/>
<circle cx="100.5" cy="22.5" r="2.5" transform="rotate(90 100.5 22.5)" fill="#2E3A87"/>
<circle cx="100.5" cy="42.5" r="2.5" transform="rotate(90 100.5 42.5)" fill="#2E3A87"/>
<circle cx="100.5" cy="62.5" r="2.5" transform="rotate(90 100.5 62.5)" fill="#2E3A87"/>
<circle cx="100.5" cy="82.5" r="2.5" transform="rotate(90 100.5 82.5)" fill="#2E3A87"/>
<circle cx="100.5" cy="102.5" r="2.5" transform="rotate(90 100.5 102.5)" fill="#2E3A87"/>
<circle cx="100.5" cy="122.5" r="2.5" transform="rotate(90 100.5 122.5)" fill="#2E3A87"/>
<circle cx="100.5" cy="142.5" r="2.5" transform="rotate(90 100.5 142.5)" fill="#2E3A87"/>
<circle cx="100.5" cy="162.5" r="2.5" transform="rotate(90 100.5 162.5)" fill="#2E3A87"/>
<circle cx="100.5" cy="182.5" r="2.5" transform="rotate(90 100.5 182.5)" fill="#2E3A87"/>
<circle cx="100.5" cy="202.5" r="2.5" transform="rotate(90 100.5 202.5)" fill="#2E3A87"/>
<circle cx="100.5" cy="222.5" r="2.5" transform="rotate(90 100.5 222.5)" fill="#2E3A87"/>
<circle cx="100.5" cy="242.5" r="2.5" transform="rotate(90 100.5 242.5)" fill="#2E3A87"/>
<circle cx="100.5" cy="262.5" r="2.5" transform="rotate(90 100.5 262.5)" fill="#2E3A87"/>
<circle cx="100.5" cy="282.5" r="2.5" transform="rotate(90 100.5 282.5)" fill="#2E3A87"/>
<circle cx="100.5" cy="302.5" r="2.5" transform="rotate(90 100.5 302.5)" fill="#2E3A87"/>
<circle cx="80.5" cy="2.5" r="2.5" transform="rotate(90 80.5 2.5)" fill="#2E3A87"/>
<circle cx="80.5" cy="22.5" r="2.5" transform="rotate(90 80.5 22.5)" fill="#2E3A87"/>
<circle cx="80.5" cy="42.5" r="2.5" transform="rotate(90 80.5 42.5)" fill="#2E3A87"/>
<circle cx="80.5" cy="62.5" r="2.5" transform="rotate(90 80.5 62.5)" fill="#2E3A87"/>
<circle cx="80.5" cy="82.5" r="2.5" transform="rotate(90 80.5 82.5)" fill="#2E3A87"/>
<circle cx="80.5" cy="102.5" r="2.5" transform="rotate(90 80.5 102.5)" fill="#2E3A87"/>
<circle cx="80.5" cy="122.5" r="2.5" transform="rotate(90 80.5 122.5)" fill="#2E3A87"/>
<circle cx="80.5" cy="142.5" r="2.5" transform="rotate(90 80.5 142.5)" fill="#2E3A87"/>
<circle cx="80.5" cy="162.5" r="2.5" transform="rotate(90 80.5 162.5)" fill="#2E3A87"/>
<circle cx="80.5" cy="182.5" r="2.5" transform="rotate(90 80.5 182.5)" fill="#2E3A87"/>
<circle cx="80.5" cy="202.5" r="2.5" transform="rotate(90 80.5 202.5)" fill="#2E3A87"/>
<circle cx="80.5" cy="222.5" r="2.5" transform="rotate(90 80.5 222.5)" fill="#2E3A87"/>
<circle cx="80.5" cy="242.5" r="2.5" transform="rotate(90 80.5 242.5)" fill="#2E3A87"/>
<circle cx="80.5" cy="262.5" r="2.5" transform="rotate(90 80.5 262.5)" fill="#2E3A87"/>
<circle cx="80.5" cy="282.5" r="2.5" transform="rotate(90 80.5 282.5)" fill="#2E3A87"/>
<circle cx="80.5" cy="302.5" r="2.5" transform="rotate(90 80.5 302.5)" fill="#2E3A87"/>
<circle cx="60.5" cy="2.5" r="2.5" transform="rotate(90 60.5 2.5)" fill="#2E3A87"/>
<circle cx="60.5" cy="22.5" r="2.5" transform="rotate(90 60.5 22.5)" fill="#2E3A87"/>
<circle cx="60.5" cy="42.5" r="2.5" transform="rotate(90 60.5 42.5)" fill="#2E3A87"/>
<circle cx="60.5" cy="62.5" r="2.5" transform="rotate(90 60.5 62.5)" fill="#2E3A87"/>
<circle cx="60.5" cy="82.5" r="2.5" transform="rotate(90 60.5 82.5)" fill="#2E3A87"/>
<circle cx="60.5" cy="102.5" r="2.5" transform="rotate(90 60.5 102.5)" fill="#2E3A87"/>
<circle cx="60.5" cy="122.5" r="2.5" transform="rotate(90 60.5 122.5)" fill="#2E3A87"/>
<circle cx="60.5" cy="142.5" r="2.5" transform="rotate(90 60.5 142.5)" fill="#2E3A87"/>
<circle cx="60.5" cy="162.5" r="2.5" transform="rotate(90 60.5 162.5)" fill="#2E3A87"/>
<circle cx="60.5" cy="182.5" r="2.5" transform="rotate(90 60.5 182.5)" fill="#2E3A87"/>
<circle cx="60.5" cy="202.5" r="2.5" transform="rotate(90 60.5 202.5)" fill="#2E3A87"/>
<circle cx="60.5" cy="222.5" r="2.5" transform="rotate(90 60.5 222.5)" fill="#2E3A87"/>
<circle cx="60.5" cy="242.5" r="2.5" transform="rotate(90 60.5 242.5)" fill="#2E3A87"/>
<circle cx="60.5" cy="262.5" r="2.5" transform="rotate(90 60.5 262.5)" fill="#2E3A87"/>
<circle cx="60.5" cy="282.5" r="2.5" transform="rotate(90 60.5 282.5)" fill="#2E3A87"/>
<circle cx="60.5" cy="302.5" r="2.5" transform="rotate(90 60.5 302.5)" fill="#2E3A87"/>
<circle cx="40.5" cy="2.5" r="2.5" transform="rotate(90 40.5 2.5)" fill="#2E3A87"/>
<circle cx="40.5" cy="22.5" r="2.5" transform="rotate(90 40.5 22.5)" fill="#2E3A87"/>
<circle cx="40.5" cy="42.5" r="2.5" transform="rotate(90 40.5 42.5)" fill="#2E3A87"/>
<circle cx="40.5" cy="62.5" r="2.5" transform="rotate(90 40.5 62.5)" fill="#2E3A87"/>
<circle cx="40.5" cy="82.5" r="2.5" transform="rotate(90 40.5 82.5)" fill="#2E3A87"/>
<circle cx="40.5" cy="102.5" r="2.5" transform="rotate(90 40.5 102.5)" fill="#2E3A87"/>
<circle cx="40.5" cy="122.5" r="2.5" transform="rotate(90 40.5 122.5)" fill="#2E3A87"/>
<circle cx="40.5" cy="142.5" r="2.5" transform="rotate(90 40.5 142.5)" fill="#2E3A87"/>
<circle cx="40.5" cy="162.5" r="2.5" transform="rotate(90 40.5 162.5)" fill="#2E3A87"/>
<circle cx="40.5" cy="182.5" r="2.5" transform="rotate(90 40.5 182.5)" fill="#2E3A87"/>
<circle cx="40.5" cy="202.5" r="2.5" transform="rotate(90 40.5 202.5)" fill="#2E3A87"/>
<circle cx="40.5" cy="222.5" r="2.5" transform="rotate(90 40.5 222.5)" fill="#2E3A87"/>
<circle cx="40.5" cy="242.5" r="2.5" transform="rotate(90 40.5 242.5)" fill="#2E3A87"/>
<circle cx="40.5" cy="262.5" r="2.5" transform="rotate(90 40.5 262.5)" fill="#2E3A87"/>
<circle cx="40.5" cy="282.5" r="2.5" transform="rotate(90 40.5 282.5)" fill="#2E3A87"/>
<circle cx="40.5" cy="302.5" r="2.5" transform="rotate(90 40.5 302.5)" fill="#2E3A87"/>
<circle cx="20.5" cy="2.5" r="2.5" transform="rotate(90 20.5 2.5)" fill="#2E3A87"/>
<circle cx="20.5" cy="22.5" r="2.5" transform="rotate(90 20.5 22.5)" fill="#2E3A87"/>
<circle cx="20.5" cy="42.5" r="2.5" transform="rotate(90 20.5 42.5)" fill="#2E3A87"/>
<circle cx="20.5" cy="62.5" r="2.5" transform="rotate(90 20.5 62.5)" fill="#2E3A87"/>
<circle cx="20.5" cy="82.5" r="2.5" transform="rotate(90 20.5 82.5)" fill="#2E3A87"/>
<circle cx="20.5" cy="102.5" r="2.5" transform="rotate(90 20.5 102.5)" fill="#2E3A87"/>
<circle cx="20.5" cy="122.5" r="2.5" transform="rotate(90 20.5 122.5)" fill="#2E3A87"/>
<circle cx="20.5" cy="142.5" r="2.5" transform="rotate(90 20.5 142.5)" fill="#2E3A87"/>
<circle cx="20.5" cy="162.5" r="2.5" transform="rotate(90 20.5 162.5)" fill="#2E3A87"/>
<circle cx="20.5" cy="182.5" r="2.5" transform="rotate(90 20.5 182.5)" fill="#2E3A87"/>
<circle cx="20.5" cy="202.5" r="2.5" transform="rotate(90 20.5 202.5)" fill="#2E3A87"/>
<circle cx="20.5" cy="222.5" r="2.5" transform="rotate(90 20.5 222.5)" fill="#2E3A87"/>
<circle cx="20.5" cy="242.5" r="2.5" transform="rotate(90 20.5 242.5)" fill="#2E3A87"/>
<circle cx="20.5" cy="262.5" r="2.5" transform="rotate(90 20.5 262.5)" fill="#2E3A87"/>
<circle cx="20.5" cy="282.5" r="2.5" transform="rotate(90 20.5 282.5)" fill="#2E3A87"/>
<circle cx="20.5" cy="302.5" r="2.5" transform="rotate(90 20.5 302.5)" fill="#2E3A87"/>
<circle cx="0.5" cy="2.5" r="2.5" transform="rotate(90 0.5 2.5)" fill="#2E3A87"/>
<circle cx="0.5" cy="22.5" r="2.5" transform="rotate(90 0.5 22.5)" fill="#2E3A87"/>
<circle cx="0.5" cy="42.5" r="2.5" transform="rotate(90 0.5 42.5)" fill="#2E3A87"/>
<circle cx="0.5" cy="62.5" r="2.5" transform="rotate(90 0.5 62.5)" fill="#2E3A87"/>
<circle cx="0.5" cy="82.5" r="2.5" transform="rotate(90 0.5 82.5)" fill="#2E3A87"/>
<circle cx="0.5" cy="102.5" r="2.5" transform="rotate(90 0.5 102.5)" fill="#2E3A87"/>
<circle cx="0.5" cy="122.5" r="2.5" transform="rotate(90 0.5 122.5)" fill="#2E3A87"/>
<circle cx="0.5" cy="142.5" r="2.5" transform="rotate(90 0.5 142.5)" fill="#2E3A87"/>
<circle cx="0.5" cy="162.5" r="2.5" transform="rotate(90 0.5 162.5)" fill="#2E3A87"/>
<circle cx="0.5" cy="182.5" r="2.5" transform="rotate(90 0.5 182.5)" fill="#2E3A87"/>
<circle cx="0.5" cy="202.5" r="2.5" transform="rotate(90 0.5 202.5)" fill="#2E3A87"/>
<circle cx="0.5" cy="222.5" r="2.5" transform="rotate(90 0.5 222.5)" fill="#2E3A87"/>
<circle cx="0.5" cy="242.5" r="2.5" transform="rotate(90 0.5 242.5)" fill="#2E3A87"/>
<circle cx="0.5" cy="262.5" r="2.5" transform="rotate(90 0.5 262.5)" fill="#2E3A87"/>
<circle cx="0.5" cy="282.5" r="2.5" transform="rotate(90 0.5 282.5)" fill="#2E3A87"/>
<circle cx="0.5" cy="302.5" r="2.5" transform="rotate(90 0.5 302.5)" fill="#2E3A87"/>
</g>
<g opacity="0.17">
<circle cx="260.5" cy="2.5" r="2.5" transform="rotate(90 260.5 2.5)" fill="#2E3A87"/>
<circle cx="260.5" cy="22.5" r="2.5" transform="rotate(90 260.5 22.5)" fill="#2E3A87"/>
<circle cx="260.5" cy="42.5" r="2.5" transform="rotate(90 260.5 42.5)" fill="#2E3A87"/>
<circle cx="260.5" cy="62.5" r="2.5" transform="rotate(90 260.5 62.5)" fill="#2E3A87"/>
<circle cx="260.5" cy="82.5" r="2.5" transform="rotate(90 260.5 82.5)" fill="#2E3A87"/>
<circle cx="260.5" cy="102.5" r="2.5" transform="rotate(90 260.5 102.5)" fill="#2E3A87"/>
<circle cx="260.5" cy="122.5" r="2.5" transform="rotate(90 260.5 122.5)" fill="#2E3A87"/>
<circle cx="260.5" cy="142.5" r="2.5" transform="rotate(90 260.5 142.5)" fill="#2E3A87"/>
<circle cx="260.5" cy="162.5" r="2.5" transform="rotate(90 260.5 162.5)" fill="#2E3A87"/>
<circle cx="260.5" cy="182.5" r="2.5" transform="rotate(90 260.5 182.5)" fill="#2E3A87"/>
<circle cx="260.5" cy="202.5" r="2.5" transform="rotate(90 260.5 202.5)" fill="#2E3A87"/>
<circle cx="260.5" cy="222.5" r="2.5" transform="rotate(90 260.5 222.5)" fill="#2E3A87"/>
<circle cx="260.5" cy="242.5" r="2.5" transform="rotate(90 260.5 242.5)" fill="#2E3A87"/>
<circle cx="260.5" cy="262.5" r="2.5" transform="rotate(90 260.5 262.5)" fill="#2E3A87"/>
<circle cx="260.5" cy="282.5" r="2.5" transform="rotate(90 260.5 282.5)" fill="#2E3A87"/>
<circle cx="260.5" cy="302.5" r="2.5" transform="rotate(90 260.5 302.5)" fill="#2E3A87"/>
<circle cx="240.5" cy="2.5" r="2.5" transform="rotate(90 240.5 2.5)" fill="#2E3A87"/>
<circle cx="240.5" cy="22.5" r="2.5" transform="rotate(90 240.5 22.5)" fill="#2E3A87"/>
<circle cx="240.5" cy="42.5" r="2.5" transform="rotate(90 240.5 42.5)" fill="#2E3A87"/>
<circle cx="240.5" cy="62.5" r="2.5" transform="rotate(90 240.5 62.5)" fill="#2E3A87"/>
<circle cx="240.5" cy="82.5" r="2.5" transform="rotate(90 240.5 82.5)" fill="#2E3A87"/>
<circle cx="240.5" cy="102.5" r="2.5" transform="rotate(90 240.5 102.5)" fill="#2E3A87"/>
<circle cx="240.5" cy="122.5" r="2.5" transform="rotate(90 240.5 122.5)" fill="#2E3A87"/>
<circle cx="240.5" cy="142.5" r="2.5" transform="rotate(90 240.5 142.5)" fill="#2E3A87"/>
<circle cx="240.5" cy="162.5" r="2.5" transform="rotate(90 240.5 162.5)" fill="#2E3A87"/>
<circle cx="240.5" cy="182.5" r="2.5" transform="rotate(90 240.5 182.5)" fill="#2E3A87"/>
<circle cx="240.5" cy="202.5" r="2.5" transform="rotate(90 240.5 202.5)" fill="#2E3A87"/>
<circle cx="240.5" cy="222.5" r="2.5" transform="rotate(90 240.5 222.5)" fill="#2E3A87"/>
<circle cx="240.5" cy="242.5" r="2.5" transform="rotate(90 240.5 242.5)" fill="#2E3A87"/>
<circle cx="240.5" cy="262.5" r="2.5" transform="rotate(90 240.5 262.5)" fill="#2E3A87"/>
<circle cx="240.5" cy="282.5" r="2.5" transform="rotate(90 240.5 282.5)" fill="#2E3A87"/>
<circle cx="240.5" cy="302.5" r="2.5" transform="rotate(90 240.5 302.5)" fill="#2E3A87"/>
<circle cx="220.5" cy="2.5" r="2.5" transform="rotate(90 220.5 2.5)" fill="#2E3A87"/>
<circle cx="220.5" cy="22.5" r="2.5" transform="rotate(90 220.5 22.5)" fill="#2E3A87"/>
<circle cx="220.5" cy="42.5" r="2.5" transform="rotate(90 220.5 42.5)" fill="#2E3A87"/>
<circle cx="220.5" cy="62.5" r="2.5" transform="rotate(90 220.5 62.5)" fill="#2E3A87"/>
<circle cx="220.5" cy="82.5" r="2.5" transform="rotate(90 220.5 82.5)" fill="#2E3A87"/>
<circle cx="220.5" cy="102.5" r="2.5" transform="rotate(90 220.5 102.5)" fill="#2E3A87"/>
<circle cx="220.5" cy="122.5" r="2.5" transform="rotate(90 220.5 122.5)" fill="#2E3A87"/>
<circle cx="220.5" cy="142.5" r="2.5" transform="rotate(90 220.5 142.5)" fill="#2E3A87"/>
<circle cx="220.5" cy="162.5" r="2.5" transform="rotate(90 220.5 162.5)" fill="#2E3A87"/>
<circle cx="220.5" cy="182.5" r="2.5" transform="rotate(90 220.5 182.5)" fill="#2E3A87"/>
<circle cx="220.5" cy="202.5" r="2.5" transform="rotate(90 220.5 202.5)" fill="#2E3A87"/>
<circle cx="220.5" cy="222.5" r="2.5" transform="rotate(90 220.5 222.5)" fill="#2E3A87"/>
<circle cx="220.5" cy="242.5" r="2.5" transform="rotate(90 220.5 242.5)" fill="#2E3A87"/>
<circle cx="220.5" cy="262.5" r="2.5" transform="rotate(90 220.5 262.5)" fill="#2E3A87"/>
<circle cx="220.5" cy="282.5" r="2.5" transform="rotate(90 220.5 282.5)" fill="#2E3A87"/>
<circle cx="220.5" cy="302.5" r="2.5" transform="rotate(90 220.5 302.5)" fill="#2E3A87"/>
<circle cx="200.5" cy="2.5" r="2.5" transform="rotate(90 200.5 2.5)" fill="#2E3A87"/>
<circle cx="200.5" cy="22.5" r="2.5" transform="rotate(90 200.5 22.5)" fill="#2E3A87"/>
<circle cx="200.5" cy="42.5" r="2.5" transform="rotate(90 200.5 42.5)" fill="#2E3A87"/>
<circle cx="200.5" cy="62.5" r="2.5" transform="rotate(90 200.5 62.5)" fill="#2E3A87"/>
<circle cx="200.5" cy="82.5" r="2.5" transform="rotate(90 200.5 82.5)" fill="#2E3A87"/>
<circle cx="200.5" cy="102.5" r="2.5" transform="rotate(90 200.5 102.5)" fill="#2E3A87"/>
<circle cx="200.5" cy="122.5" r="2.5" transform="rotate(90 200.5 122.5)" fill="#2E3A87"/>
<circle cx="200.5" cy="142.5" r="2.5" transform="rotate(90 200.5 142.5)" fill="#2E3A87"/>
<circle cx="200.5" cy="162.5" r="2.5" transform="rotate(90 200.5 162.5)" fill="#2E3A87"/>
<circle cx="200.5" cy="182.5" r="2.5" transform="rotate(90 200.5 182.5)" fill="#2E3A87"/>
<circle cx="200.5" cy="202.5" r="2.5" transform="rotate(90 200.5 202.5)" fill="#2E3A87"/>
<circle cx="200.5" cy="222.5" r="2.5" transform="rotate(90 200.5 222.5)" fill="#2E3A87"/>
<circle cx="200.5" cy="242.5" r="2.5" transform="rotate(90 200.5 242.5)" fill="#2E3A87"/>
<circle cx="200.5" cy="262.5" r="2.5" transform="rotate(90 200.5 262.5)" fill="#2E3A87"/>
<circle cx="200.5" cy="282.5" r="2.5" transform="rotate(90 200.5 282.5)" fill="#2E3A87"/>
<circle cx="200.5" cy="302.5" r="2.5" transform="rotate(90 200.5 302.5)" fill="#2E3A87"/>
<circle cx="180.5" cy="2.5" r="2.5" transform="rotate(90 180.5 2.5)" fill="#2E3A87"/>
<circle cx="180.5" cy="22.5" r="2.5" transform="rotate(90 180.5 22.5)" fill="#2E3A87"/>
<circle cx="180.5" cy="42.5" r="2.5" transform="rotate(90 180.5 42.5)" fill="#2E3A87"/>
<circle cx="180.5" cy="62.5" r="2.5" transform="rotate(90 180.5 62.5)" fill="#2E3A87"/>
<circle cx="180.5" cy="82.5" r="2.5" transform="rotate(90 180.5 82.5)" fill="#2E3A87"/>
<circle cx="180.5" cy="102.5" r="2.5" transform="rotate(90 180.5 102.5)" fill="#2E3A87"/>
<circle cx="180.5" cy="122.5" r="2.5" transform="rotate(90 180.5 122.5)" fill="#2E3A87"/>
<circle cx="180.5" cy="142.5" r="2.5" transform="rotate(90 180.5 142.5)" fill="#2E3A87"/>
<circle cx="180.5" cy="162.5" r="2.5" transform="rotate(90 180.5 162.5)" fill="#2E3A87"/>
<circle cx="180.5" cy="182.5" r="2.5" transform="rotate(90 180.5 182.5)" fill="#2E3A87"/>
<circle cx="180.5" cy="202.5" r="2.5" transform="rotate(90 180.5 202.5)" fill="#2E3A87"/>
<circle cx="180.5" cy="222.5" r="2.5" transform="rotate(90 180.5 222.5)" fill="#2E3A87"/>
<circle cx="180.5" cy="242.5" r="2.5" transform="rotate(90 180.5 242.5)" fill="#2E3A87"/>
<circle cx="180.5" cy="262.5" r="2.5" transform="rotate(90 180.5 262.5)" fill="#2E3A87"/>
<circle cx="180.5" cy="282.5" r="2.5" transform="rotate(90 180.5 282.5)" fill="#2E3A87"/>
<circle cx="180.5" cy="302.5" r="2.5" transform="rotate(90 180.5 302.5)" fill="#2E3A87"/>
<circle cx="160.5" cy="2.5" r="2.5" transform="rotate(90 160.5 2.5)" fill="#2E3A87"/>
<circle cx="160.5" cy="22.5" r="2.5" transform="rotate(90 160.5 22.5)" fill="#2E3A87"/>
<circle cx="160.5" cy="42.5" r="2.5" transform="rotate(90 160.5 42.5)" fill="#2E3A87"/>
<circle cx="160.5" cy="62.5" r="2.5" transform="rotate(90 160.5 62.5)" fill="#2E3A87"/>
<circle cx="160.5" cy="82.5" r="2.5" transform="rotate(90 160.5 82.5)" fill="#2E3A87"/>
<circle cx="160.5" cy="102.5" r="2.5" transform="rotate(90 160.5 102.5)" fill="#2E3A87"/>
<circle cx="160.5" cy="122.5" r="2.5" transform="rotate(90 160.5 122.5)" fill="#2E3A87"/>
<circle cx="160.5" cy="142.5" r="2.5" transform="rotate(90 160.5 142.5)" fill="#2E3A87"/>
<circle cx="160.5" cy="162.5" r="2.5" transform="rotate(90 160.5 162.5)" fill="#2E3A87"/>
<circle cx="160.5" cy="182.5" r="2.5" transform="rotate(90 160.5 182.5)" fill="#2E3A87"/>
<circle cx="160.5" cy="202.5" r="2.5" transform="rotate(90 160.5 202.5)" fill="#2E3A87"/>
<circle cx="160.5" cy="222.5" r="2.5" transform="rotate(90 160.5 222.5)" fill="#2E3A87"/>
<circle cx="160.5" cy="242.5" r="2.5" transform="rotate(90 160.5 242.5)" fill="#2E3A87"/>
<circle cx="160.5" cy="262.5" r="2.5" transform="rotate(90 160.5 262.5)" fill="#2E3A87"/>
<circle cx="160.5" cy="282.5" r="2.5" transform="rotate(90 160.5 282.5)" fill="#2E3A87"/>
<circle cx="160.5" cy="302.5" r="2.5" transform="rotate(90 160.5 302.5)" fill="#2E3A87"/>
<circle cx="140.5" cy="2.5" r="2.5" transform="rotate(90 140.5 2.5)" fill="#2E3A87"/>
<circle cx="140.5" cy="22.5" r="2.5" transform="rotate(90 140.5 22.5)" fill="#2E3A87"/>
<circle cx="140.5" cy="42.5" r="2.5" transform="rotate(90 140.5 42.5)" fill="#2E3A87"/>
<circle cx="140.5" cy="62.5" r="2.5" transform="rotate(90 140.5 62.5)" fill="#2E3A87"/>
<circle cx="140.5" cy="82.5" r="2.5" transform="rotate(90 140.5 82.5)" fill="#2E3A87"/>
<circle cx="140.5" cy="102.5" r="2.5" transform="rotate(90 140.5 102.5)" fill="#2E3A87"/>
<circle cx="140.5" cy="122.5" r="2.5" transform="rotate(90 140.5 122.5)" fill="#2E3A87"/>
<circle cx="140.5" cy="142.5" r="2.5" transform="rotate(90 140.5 142.5)" fill="#2E3A87"/>
<circle cx="140.5" cy="162.5" r="2.5" transform="rotate(90 140.5 162.5)" fill="#2E3A87"/>
<circle cx="140.5" cy="182.5" r="2.5" transform="rotate(90 140.5 182.5)" fill="#2E3A87"/>
<circle cx="140.5" cy="202.5" r="2.5" transform="rotate(90 140.5 202.5)" fill="#2E3A87"/>
<circle cx="140.5" cy="222.5" r="2.5" transform="rotate(90 140.5 222.5)" fill="#2E3A87"/>
<circle cx="140.5" cy="242.5" r="2.5" transform="rotate(90 140.5 242.5)" fill="#2E3A87"/>
<circle cx="140.5" cy="262.5" r="2.5" transform="rotate(90 140.5 262.5)" fill="#2E3A87"/>
<circle cx="140.5" cy="282.5" r="2.5" transform="rotate(90 140.5 282.5)" fill="#2E3A87"/>
<circle cx="140.5" cy="302.5" r="2.5" transform="rotate(90 140.5 302.5)" fill="#2E3A87"/>
<circle cx="120.5" cy="2.5" r="2.5" transform="rotate(90 120.5 2.5)" fill="#2E3A87"/>
<circle cx="120.5" cy="22.5" r="2.5" transform="rotate(90 120.5 22.5)" fill="#2E3A87"/>
<circle cx="120.5" cy="42.5" r="2.5" transform="rotate(90 120.5 42.5)" fill="#2E3A87"/>
<circle cx="120.5" cy="62.5" r="2.5" transform="rotate(90 120.5 62.5)" fill="#2E3A87"/>
<circle cx="120.5" cy="82.5" r="2.5" transform="rotate(90 120.5 82.5)" fill="#2E3A87"/>
<circle cx="120.5" cy="102.5" r="2.5" transform="rotate(90 120.5 102.5)" fill="#2E3A87"/>
<circle cx="120.5" cy="122.5" r="2.5" transform="rotate(90 120.5 122.5)" fill="#2E3A87"/>
<circle cx="120.5" cy="142.5" r="2.5" transform="rotate(90 120.5 142.5)" fill="#2E3A87"/>
<circle cx="120.5" cy="162.5" r="2.5" transform="rotate(90 120.5 162.5)" fill="#2E3A87"/>
<circle cx="120.5" cy="182.5" r="2.5" transform="rotate(90 120.5 182.5)" fill="#2E3A87"/>
<circle cx="120.5" cy="202.5" r="2.5" transform="rotate(90 120.5 202.5)" fill="#2E3A87"/>
<circle cx="120.5" cy="222.5" r="2.5" transform="rotate(90 120.5 222.5)" fill="#2E3A87"/>
<circle cx="120.5" cy="242.5" r="2.5" transform="rotate(90 120.5 242.5)" fill="#2E3A87"/>
<circle cx="120.5" cy="262.5" r="2.5" transform="rotate(90 120.5 262.5)" fill="#2E3A87"/>
<circle cx="120.5" cy="282.5" r="2.5" transform="rotate(90 120.5 282.5)" fill="#2E3A87"/>
<circle cx="120.5" cy="302.5" r="2.5" transform="rotate(90 120.5 302.5)" fill="#2E3A87"/>
</g>
</svg>
